<?xml version="1.0" encoding="utf-8"?>
<!-- Generator: Adobe Illustrator 24.1.2, SVG Export Plug-In . SVG Version: 6.00 Build 0)  -->
<svg version="1.1" xmlns="http://www.w3.org/2000/svg" xmlns:xlink="http://www.w3.org/1999/xlink" x="0px" y="0px"
	 viewBox="0 0 300 89" style="enable-background:new 0 0 300 89;" xml:space="preserve">
<style type="text/css">
	.st0{display:none;}
	.st1{display:inline;}
	.st2{fill:none;}
	.st3{fill:#FFFFFF;}
	.st4{font-family:'Futura-Bold';}
	.st5{font-size:86px;}
	.st6{letter-spacing:-8;}
	.st7{font-family:'Futura-Medium';}
	.st8{letter-spacing:-4;}
	.st9{fill:#4DFFFF;}
	.st10{fill:#27F5FF;}
</style>
<g id="Layer_2" class="st0">
	<rect y="-29" class="st1" width="300" height="150"/>
</g>
<g id="Layer_1">
	<rect x="3" y="12" class="st2" width="295" height="77"/>
	<text transform="matrix(1 0 0 1 3 83.3789)"><tspan x="0" y="0" class="st3 st4 st5 st6">  n </tspan><tspan x="110.4" y="0" class="st3 st7 st5 st8">stock</tspan></text>
	<g>
		<path class="st9" d="M44,18.6c3.8,11.1,2.6,65.3,0.1,66.1c-0.3,0.1-0.8-0.3-1.7-1c0.8,0.5,1.3,0.7,1.5,0.6
			c2.3-1.2-4.3-55-9.7-65.4C30,10.6,21.1,6.3,12.4,7.5c1.4-0.9,2.9-1.6,4.6-2.2C28.1,1.5,40.2,7.5,44,18.6z"/>
	</g>
	<g>
		<path class="st10" d="M44,84.3c-0.2,0.1-0.7-0.1-1.5-0.6c0,0,0,0,0,0C35,77.3,7.1,42.4,3.7,32.4c-3.2-9.5,0.6-19.7,8.7-24.9
			c8.7-1.2,17.6,3.1,21.9,11.4C39.7,29.4,46.3,83.1,44,84.3z"/>
	</g>
</g>
</svg>
