<?xml version="1.0" encoding="utf-8"?>
<!-- Generator: Adobe Illustrator 24.1.2, SVG Export Plug-In . SVG Version: 6.00 Build 0)  -->
<svg version="1.1" xmlns="http://www.w3.org/2000/svg" xmlns:xlink="http://www.w3.org/1999/xlink" x="0px" y="0px"
	 viewBox="0 0 600 500" style="enable-background:new 0 0 600 500;" xml:space="preserve">
<style type="text/css">
	.st0{display:none;}
	.st1{display:inline;}
	.st2{fill:#FF7581;}
	.st3{fill:#F46476;}
	.st4{fill:#5BA9D8;}
	.st5{fill:#549FD6;}
	.st6{display:inline;fill:url(#SVGID_1_);}
	.st7{fill:none;stroke:#FF7581;stroke-miterlimit:10;}
	.st8{clip-path:url(#SVGID_3_);}
	.st9{fill:#6ADCFF;}
	.st10{fill:#FFFFFF;}
	.st11{fill:url(#SVGID_4_);}
	.st12{fill:#063670;}
	.st13{fill:#003582;}
	.st14{fill:#F9F9F9;}
	.st15{filter:url(#Adobe_OpacityMaskFilter);}
	.st16{opacity:0.66;mask:url(#SVGID_5_);}
	.st17{fill:#C6224D;}
	.st18{filter:url(#Adobe_OpacityMaskFilter_1_);}
	.st19{opacity:0.66;mask:url(#SVGID_6_);}
	.st20{filter:url(#Adobe_OpacityMaskFilter_2_);}
	.st21{opacity:0.66;mask:url(#SVGID_7_);}
	.st22{filter:url(#Adobe_OpacityMaskFilter_3_);}
	.st23{opacity:0.66;mask:url(#SVGID_8_);}
	.st24{filter:url(#Adobe_OpacityMaskFilter_4_);}
	.st25{opacity:0.53;mask:url(#SVGID_9_);}
	.st26{fill:#E21000;}
	.st27{filter:url(#Adobe_OpacityMaskFilter_5_);}
	.st28{opacity:0.53;mask:url(#SVGID_10_);}
</style>
<g id="Layer_1" class="st0">
	<g class="st1">
		<rect class="st2" width="600" height="500"/>
	</g>
</g>
<g id="Layer_4">
	<g>
		<path class="st3" d="M218,382c-18,0-7-8-16-6c-3,0-5,6-5,6c0,0.1-27.6-13.8-45-13c-9,0-47.6,8.6-58,9c-13.4,0.6,7.6,0.3,3,0
			l-28.2-2.3c-9.3-0.7-40.3-2.9-41.6-19.8c-0.1-1.4-0.1-2.7,0.1-3.9c-0.2-0.7-0.3-1.4-0.3-2.1c-1.5-19.3,48-14.8,73-7.8l117,31
			C222,377,218,382,218,382z"/>
	</g>
	<g>
		<path class="st4" d="M114.3,364.1c-0.1,0-0.3,0.1-0.4,0.1c-0.1-0.1-0.3-0.1-0.5-0.2c0.1,0,0.2,0,0.3,0
			C113.9,364.1,114.1,364.1,114.3,364.1z"/>
		<path class="st5" d="M114.3,364.1c-0.1,0-0.3,0.1-0.4,0.1c-0.1-0.1-0.3-0.1-0.5-0.2c0.1,0,0.2,0,0.3,0
			C113.9,364.1,114.1,364.1,114.3,364.1z"/>
	</g>
</g>
<g id="Layer_2">
	<g id="Layer_3" class="st0">
		
			<radialGradient id="SVGID_1_" cx="436.8747" cy="418.6365" r="198.9232" fx="436.9635" fy="220.7364" gradientTransform="matrix(0.9998 -1.921627e-02 3.519196e-03 0.1831 -1.3926 350.3783)" gradientUnits="userSpaceOnUse">
			<stop  offset="0.357" style="stop-color:#E85D67;stop-opacity:0.4"/>
			<stop  offset="1" style="stop-color:#FFFFFF;stop-opacity:0"/>
		</radialGradient>
		<ellipse class="st6" cx="436" cy="414" rx="172" ry="20"/>
	</g>
	<g>
		
			<image style="overflow:visible;opacity:0.6;" width="163" height="254" xlink:href="3390EE1FE1F7BF1.png"  transform="matrix(0.48 0 0 0.48 411.24 346.92)">
		</image>
		<g>
			<path class="st2" d="M461.4,374.2c-11.5,38.7-20,65.8-20,65.8s-0.8-2.2-2.1-6.1l0.2-0.1c0,0.1,0.1,0.2,0.1,0.2
				S448.7,409.5,461.4,374.2z"/>
			<path class="st7" d="M461.4,374.2c-11.5,38.7-20,65.8-20,65.8s-0.8-2.2-2.1-6.1l0.2-0.1c0,0.1,0.1,0.2,0.1,0.2
				S448.7,409.5,461.4,374.2z"/>
		</g>
	</g>
	<g>
		
			<image style="overflow:visible;opacity:0.21;" width="464" height="915" xlink:href="3390EE1FE1F7BF3.png"  transform="matrix(0.48 0 0 0.48 340.68 17.64)">
		</image>
		<g>
			<path class="st2" d="M538.2,126.3c-1.6,34-48.2,168.3-76.8,247.8c-12.7,35.4-21.8,59.9-21.8,59.9s0-0.1-0.1-0.2l-0.2,0.1
				c-13.9-40.4-91.9-268.9-91.9-315c0-50.6,39.9-91.6,89-91.6c15,0,29.2,3.8,41.6,10.6C514.6,50.3,540.1,85.8,538.2,126.3z"/>
			<path class="st7" d="M538.2,126.3c-1.6,34-48.2,168.3-76.8,247.8c-12.7,35.4-21.8,59.9-21.8,59.9s0-0.1-0.1-0.2l-0.2,0.1
				c-13.9-40.4-91.9-268.9-91.9-315c0-50.6,39.9-91.6,89-91.6c15,0,29.2,3.8,41.6,10.6C514.6,50.3,540.1,85.8,538.2,126.3z"/>
		</g>
	</g>
	<g>
		<g>
			<defs>
				<path id="SVGID_2_" d="M222,376.2c-3,10.2-9.5,5.3-19.7-2.3c1-11.4-0.3-54.3-0.3-64V207.8c0-19.9,0-43.2-50.7-46
					c2.2-0.1,4.5-0.2,6.9-0.3c63.8-0.7,63.8,24.8,63.8,46.3v102.1C222,320.5,223.6,370.8,222,376.2z"/>
			</defs>
			<clipPath id="SVGID_3_">
				<use xlink:href="#SVGID_2_"  style="overflow:visible;"/>
			</clipPath>
			<g class="st8">
			</g>
		</g>
	</g>
	<path class="st9" d="M202.3,373.9c-10.7-7.9-41.5-19.5-51.3-17.9c-6,1-34.6,8.8-42.9,15.3c-9.2,7.1-16.2,11.7-20.1-0.2
		c-5-15.3-6-55.9-6-61.2V207.8c0-10.5,0-45.6,56.2-46.3c4.7-0.1,9.1,0,13.1,0.3c50.7,2.8,50.7,26.1,50.7,46v102.1
		C202,319.6,203.3,362.5,202.3,373.9z"/>
	<g>
		<path class="st4" d="M151.8,356.1c-20.4,6.5-37.1,35.2-43.8,15.2c8.3-6.5,18.5-15.1,29.9-15.5C142.5,355.7,147,356,151.8,356.1z"
			/>
		<path class="st5" d="M202.3,373.9c-0.1,1.1-0.2,1.9-0.3,2.3c-5.3,18.3-22.1-13.3-51.2-20.1c2.2-0.1,4.7-0.2,7.2-0.3
			C176.9,355.1,191.7,366,202.3,373.9z"/>
	</g>
	<ellipse class="st10" cx="162" cy="223.5" rx="38" ry="33.5"/>
	
		<radialGradient id="SVGID_4_" cx="177.5" cy="211.5" r="17.1345" fx="168.4384" fy="212.0213" gradientTransform="matrix(0.9977 -6.827787e-02 9.886160e-02 1.4446 -20.495 -81.9033)" gradientUnits="userSpaceOnUse">
		<stop  offset="0.1168" style="stop-color:#003BFF"/>
		<stop  offset="0.3168" style="stop-color:#0338FC"/>
		<stop  offset="0.4844" style="stop-color:#0D2EF1"/>
		<stop  offset="0.6404" style="stop-color:#1E1EE0"/>
		<stop  offset="0.7885" style="stop-color:#3608C8"/>
		<stop  offset="0.8317" style="stop-color:#3E00BF"/>
	</radialGradient>
	<circle class="st11" cx="177.5" cy="211.5" r="15.5"/>
	<path class="st5" d="M200.7,231.5c-2.4,17.8-19,31.5-39.2,31.5s-35.8-13.8-38.2-31.5c8.3,12.4,21.7,20.5,38.2,20.5
		S192.4,243.8,200.7,231.5z"/>
	<path class="st12" d="M203,333.5c0,3-0.2,5.3-0.6,7.2c-3.2-25.3-20.1-46.7-40.4-46.7s-37.2,21.3-40.4,46.7
		c-0.4-1.9-0.6-4.2-0.6-7.2c0-29,18.4-55.5,41-55.5S203,304.5,203,333.5z"/>
	<path class="st13" d="M202.4,340.7c-3.2,16.3-20.1-6.7-40.4-6.7s-37.2,23-40.4,6.7c3.2-25.3,20.1-46.7,40.4-46.7
		S199.2,315.3,202.4,340.7z"/>
	<path class="st13" d="M202.4,340.7c-3.2,16.3-20.1-6.7-40.4-6.7s-37.2,23-40.4,6.7c3.2-25.3,20.1-46.7,40.4-46.7
		S199.2,315.3,202.4,340.7z"/>
</g>
<g id="Layer_5">
	<path class="st14" d="M512,225c-53.7-26.7-107.3-53.3-161-80c-2.3-8.2-4.9-21.2-3-37c3.1-25.5,16-42.9,22-50
		c55.7,26.7,111.3,53.3,167,80c-3,13.9-6.6,28.6-11,44C521.6,197.4,516.8,211.7,512,225z"/>
	<g>
		<g>
			<path class="st2" d="M414.2,121.2c2-4.7,0.9-10.4-2.1-14.3c-1.5-2-3.6-3.5-6.1-4.3c-1.3-0.4-2.8-0.2-4-0.5
				c0.7-0.8,1.5-1.5,2.4-2.1c5.1-3.9-0.4-12.2-5.6-8.3c-3.9,2.9-7.7,6.6-7.4,11.8c0.2,2.8,1.6,5.4,3.8,7c0.2,1.4,1,2.7,2.7,3.5
				c2.4,1.2,4.6,0.3,5.9-1.4c1.4,1.1,1.7,3.9,0.8,5.3c-2.3,3.4-7.5,1.2-9.7-0.9c-4.6-4.6-11.1,3-6.6,7.5c1.2,1.2,2.6,2.2,4.1,3
				c-0.8,2.2-0.3,4.8,2.4,6.1c3.1,1.5,5.9-0.4,6.8-3c0,0,0.1,0,0.1,0c0,0,0,0,0,0c0.4-0.1,0.9-0.3,1.2-0.5c0,0,0,0,0,0
				c0.4-0.2,0.7-0.5,1-0.9c0,0,0,0,0,0C408.4,128.3,412.3,125.8,414.2,121.2z"/>
		</g>
		<defs>
			<filter id="Adobe_OpacityMaskFilter" filterUnits="userSpaceOnUse" x="386.9" y="90.8" width="28.3" height="43.4">
				
					<feColorMatrix  type="matrix" values="-1 0 0 0 1  0 -1 0 0 1  0 0 -1 0 1  0 0 0 1 0" color-interpolation-filters="sRGB" result="source"/>
			</filter>
		</defs>
		<mask maskUnits="userSpaceOnUse" x="386.9" y="90.8" width="28.3" height="43.4" id="SVGID_5_">
			<g class="st15">
				
					<image style="overflow:visible;" width="69" height="100" xlink:href="3390EE1FE1F7BF1.jpg"  transform="matrix(0.48 0 0 0.48 384.48 88.32)">
				</image>
			</g>
		</mask>
		<g class="st16">
			<path class="st17" d="M414.2,121.2c2-4.7,0.9-10.4-2.1-14.3c-1.5-2-3.6-3.5-6.1-4.3c-1.3-0.4-2.8-0.2-4-0.5
				c0.7-0.8,1.5-1.5,2.4-2.1c5.1-3.9-0.4-12.2-5.6-8.3c-3.9,2.9-7.7,6.6-7.4,11.8c0.2,2.8,1.6,5.4,3.8,7c0.2,1.4,1,2.7,2.7,3.5
				c2.4,1.2,4.6,0.3,5.9-1.4c1.4,1.1,1.7,3.9,0.8,5.3c-2.3,3.4-7.5,1.2-9.7-0.9c-4.6-4.6-11.1,3-6.6,7.5c1.2,1.2,2.6,2.2,4.1,3
				c-0.8,2.2-0.3,4.8,2.4,6.1c3.1,1.5,5.9-0.4,6.8-3c0,0,0.1,0,0.1,0c0,0,0,0,0,0c0.4-0.1,0.9-0.3,1.2-0.5c0,0,0,0,0,0
				c0.4-0.2,0.7-0.5,1-0.9c0,0,0,0,0,0C408.4,128.3,412.3,125.8,414.2,121.2z"/>
		</g>
	</g>
	<g>
		<g>
			<path class="st2" d="M447.8,118.4c-1.2-3.4-3.6-6.5-6.4-8.6c-3.9-2.9-9.1-4.3-12-8.4c-3.8-5.2-12,0.3-8.3,5.5
				c-3.9,4.1-5.1,10.4-3.1,15.8c1.3,3.4,3.8,6.2,6.9,8.2c0,0.3,0,0.6,0,0.9c0.1,1.2,0.7,2.6,1.7,3.4c1,0.8,2.3,1.4,3.7,1.2
				c0.8-0.1,1.5-0.4,2.2-0.7c0.1,0.1,0.2,0.1,0.4,0.2c0.3,0.2,0.7,0.3,1,0.4l0,0c0,0,0,0,0.1,0c0,0,0,0,0,0c0.3,0.1,0.6,0.1,0.9,0.1
				c0,0,0,0,0,0c0,0,0,0,0,0c0,0,0,0,0,0c0.3,0,0.6,0,0.9,0l0,0c0,0,0.1,0,0.1,0l0,0c0.3,0,0.5-0.1,0.8-0.2l0,0l0,0c0,0,0.1,0,0.1,0
				l0,0l0,0c0.3-0.1,0.5-0.2,0.8-0.4c0,0,0,0,0,0c0.2-0.2,0.5-0.3,0.7-0.5l0,0c0,0,0,0,0,0c0,0,0,0,0,0c0.2-0.2,0.4-0.4,0.6-0.6
				c0,0,0,0,0,0c0.2-0.2,0.3-0.5,0.5-0.7l0,0c0,0,0,0,0,0s0,0,0,0C446.2,132.3,450.3,125.6,447.8,118.4z M428.9,121.5
				c-2.4-2.4-2.5-5.7-0.4-7.8c0.6,0.4,1.2,0.7,1.8,1.1c2.6,1.5,8.3,3.8,8.2,7.6C438.4,126.4,430.5,123.1,428.9,121.5z"/>
		</g>
		<defs>
			<filter id="Adobe_OpacityMaskFilter_1_" filterUnits="userSpaceOnUse" x="417" y="99.3" width="31.6" height="37.1">
				
					<feColorMatrix  type="matrix" values="-1 0 0 0 1  0 -1 0 0 1  0 0 -1 0 1  0 0 0 1 0" color-interpolation-filters="sRGB" result="source"/>
			</filter>
		</defs>
		<mask maskUnits="userSpaceOnUse" x="417" y="99.3" width="31.6" height="37.1" id="SVGID_6_">
			<g class="st18">
				
					<image style="overflow:visible;" width="75" height="87" xlink:href="3390EE1FE1F7BF7.jpg"  transform="matrix(0.48 0 0 0.48 414.72 96.96)">
				</image>
			</g>
		</mask>
		<g class="st19">
			<path class="st17" d="M447.8,118.4c-1.2-3.4-3.6-6.5-6.4-8.6c-3.9-2.9-9.1-4.3-12-8.4c-3.8-5.2-12,0.3-8.3,5.5
				c-3.9,4.1-5.1,10.4-3.1,15.8c1.3,3.4,3.8,6.2,6.9,8.2c0,0.3,0,0.6,0,0.9c0.1,1.2,0.7,2.6,1.7,3.4c1,0.8,2.3,1.4,3.7,1.2
				c0.8-0.1,1.5-0.4,2.2-0.7c0.1,0.1,0.2,0.1,0.4,0.2c0.3,0.2,0.7,0.3,1,0.4l0,0c0,0,0,0,0.1,0c0,0,0,0,0,0c0.3,0.1,0.6,0.1,0.9,0.1
				c0,0,0,0,0,0c0,0,0,0,0,0c0,0,0,0,0,0c0.3,0,0.6,0,0.9,0l0,0c0,0,0.1,0,0.1,0l0,0c0.3,0,0.5-0.1,0.8-0.2l0,0l0,0c0,0,0.1,0,0.1,0
				l0,0l0,0c0.3-0.1,0.5-0.2,0.8-0.4c0,0,0,0,0,0c0.2-0.2,0.5-0.3,0.7-0.5l0,0c0,0,0,0,0,0c0,0,0,0,0,0c0.2-0.2,0.4-0.4,0.6-0.6
				c0,0,0,0,0,0c0.2-0.2,0.3-0.5,0.5-0.7l0,0c0,0,0,0,0,0s0,0,0,0C446.2,132.3,450.3,125.6,447.8,118.4z M428.9,121.5
				c-2.4-2.4-2.5-5.7-0.4-7.8c0.6,0.4,1.2,0.7,1.8,1.1c2.6,1.5,8.3,3.8,8.2,7.6C438.4,126.4,430.5,123.1,428.9,121.5z"/>
		</g>
	</g>
	<g>
		<g>
			<path class="st2" d="M458,135.3c0.2-9.7,0.9-19.3,2.1-28.9c0.8-6.4-9-8.2-9.8-1.8c-1.2,10-1.9,20-2.2,30.1c-0.5,0.4-1,1-1.3,1.6
				l-0.5,1c-0.3,0.6-0.5,1.2-0.4,1.9c-0.1,0.6,0,1.3,0.2,1.9c0.2,0.6,0.5,1.2,1,1.6c0.4,0.5,0.9,0.9,1.5,1.2
				c0.4,0.1,0.9,0.3,1.3,0.4c0.9,0.2,1.7,0.1,2.5-0.2c0.4-0.2,0.8-0.4,1.1-0.6c0.5-0.3,0.8-0.7,1.2-1.1
				C457.7,141.8,459.4,138,458,135.3z"/>
		</g>
		<defs>
			<filter id="Adobe_OpacityMaskFilter_2_" filterUnits="userSpaceOnUse" x="445.8" y="100.7" width="14.3" height="43.9">
				
					<feColorMatrix  type="matrix" values="-1 0 0 0 1  0 -1 0 0 1  0 0 -1 0 1  0 0 0 1 0" color-interpolation-filters="sRGB" result="source"/>
			</filter>
		</defs>
		<mask maskUnits="userSpaceOnUse" x="445.8" y="100.7" width="14.3" height="43.9" id="SVGID_7_">
			<g class="st20">
				
					<image style="overflow:visible;" width="39" height="101" xlink:href="3390EE1FE1F7BF2.jpg"  transform="matrix(0.48 0 0 0.48 443.52 98.4)">
				</image>
			</g>
		</mask>
		<g class="st21">
			<path class="st17" d="M458,135.3c0.2-9.7,0.9-19.3,2.1-28.9c0.8-6.4-9-8.2-9.8-1.8c-1.2,10-1.9,20-2.2,30.1c-0.5,0.4-1,1-1.3,1.6
				l-0.5,1c-0.3,0.6-0.5,1.2-0.4,1.9c-0.1,0.6,0,1.3,0.2,1.9c0.2,0.6,0.5,1.2,1,1.6c0.4,0.5,0.9,0.9,1.5,1.2
				c0.4,0.1,0.9,0.3,1.3,0.4c0.9,0.2,1.7,0.1,2.5-0.2c0.4-0.2,0.8-0.4,1.1-0.6c0.5-0.3,0.8-0.7,1.2-1.1
				C457.7,141.8,459.4,138,458,135.3z"/>
		</g>
	</g>
	<g>
		<g>
			<path class="st2" d="M490.5,163.6c2.6-15.6,2-31.2-1.6-46.5c-1.5-6.3-10.9-2.9-9.4,3.3c0.5,2.1,0.9,4.2,1.3,6.3
				c-7.5,0.8-14.2,7-14.2,14.9c-0.1,6.9,4.9,12.7,11.2,14.7c0.3,1.2,1.1,2.3,2.6,3c0.2,0.1,0.5,0.2,0.7,0.3
				c-0.1,0.7-0.2,1.5-0.3,2.2C479.6,168.2,489.4,170,490.5,163.6z M476.4,141.7c0-2.9,2.8-4.8,5.4-5c0.2,3.4,0.3,6.9,0.2,10.4
				C479.3,146.9,476.4,144.7,476.4,141.7z"/>
		</g>
		<defs>
			<filter id="Adobe_OpacityMaskFilter_3_" filterUnits="userSpaceOnUse" x="466.5" y="113.7" width="25.6" height="53.9">
				
					<feColorMatrix  type="matrix" values="-1 0 0 0 1  0 -1 0 0 1  0 0 -1 0 1  0 0 0 1 0" color-interpolation-filters="sRGB" result="source"/>
			</filter>
		</defs>
		<mask maskUnits="userSpaceOnUse" x="466.5" y="113.7" width="25.6" height="53.9" id="SVGID_8_">
			<g class="st22">
				
					<image style="overflow:visible;" width="63" height="122" xlink:href="3390EE1FE1F7BF3.jpg"  transform="matrix(0.48 0 0 0.48 464.16 111.36)">
				</image>
			</g>
		</mask>
		<g class="st23">
			<path class="st17" d="M490.5,163.6c2.6-15.6,2-31.2-1.6-46.5c-1.5-6.3-10.9-2.9-9.4,3.3c0.5,2.1,0.9,4.2,1.3,6.3
				c-7.5,0.8-14.2,7-14.2,14.9c-0.1,6.9,4.9,12.7,11.2,14.7c0.3,1.2,1.1,2.3,2.6,3c0.2,0.1,0.5,0.2,0.7,0.3
				c-0.1,0.7-0.2,1.5-0.3,2.2C479.6,168.2,489.4,170,490.5,163.6z M476.4,141.7c0-2.9,2.8-4.8,5.4-5c0.2,3.4,0.3,6.9,0.2,10.4
				C479.3,146.9,476.4,144.7,476.4,141.7z"/>
		</g>
	</g>
	<g>
		<g>
			<path class="st2" d="M445.6,168.7c0.7-2,1.3-4,1.8-6c1.3-1.4,1.9-3.6,1.2-5.5c0-0.1,0.1-0.3,0.1-0.4c1.1-6.3-8.7-8.1-9.8-1.8
				c-0.6,3.6-3.1,19.3-8.7,17.8c-7.9-2.2-0.5-15.1,1.6-18.8c3.2-5.6-5.8-9.9-9-4.3c-1.6,2.8-3.1,5.6-4.3,8.6
				c-1.2-9.3-8.4-18.9-18.1-20.4c-3.2-0.5-5.3,1.8-5.7,4.3c-7,5.1-11.1,14-8.2,22.5c0.1,0.4,0.3,0.8,0.4,1.2c-1.3,2.3-1,5.4,2,6.9
				c1.2,0.6,2.4,0.6,3.4,0.4c1.7,1.4,3.7,2.5,5.9,3.1c-0.2,1.8,0.5,3.8,2.7,4.8c2.7,1.3,5.1,0,6.3-2c1.6-0.7,2.7-2.3,3-4
				c3.2-1.5,5.4-3.7,6.7-6.3c0,0.1,0,0.3,0,0.4c0.5,4,2.3,7.6,5.2,10.1c0.2,1.4,1,2.8,2.7,3.6c1.8,0.9,3.4,0.6,4.7-0.2
				c1.4,0.2,2.6,0.2,3.8,0c2.2,2.1,6.3,2.3,8-1.2l4.2-8.8C446.2,171.3,446.1,169.9,445.6,168.7z M404.5,166.7
				c-3.9,1.2-7.5-1.6-8.6-5.3c-1.2-3.9,0.6-7.5,3.4-10.1c0.4,0.8,1.1,1.5,2.2,2c1.9,0.9,3.6,0.6,4.9-0.4c0.5,0.8,1,1.7,1.4,2.6
				C409.3,159.6,409.5,165.2,404.5,166.7z"/>
		</g>
		<defs>
			<filter id="Adobe_OpacityMaskFilter_4_" filterUnits="userSpaceOnUse" x="385.5" y="137.9" width="63.3" height="46.4">
				
					<feColorMatrix  type="matrix" values="-1 0 0 0 1  0 -1 0 0 1  0 0 -1 0 1  0 0 0 1 0" color-interpolation-filters="sRGB" result="source"/>
			</filter>
		</defs>
		<mask maskUnits="userSpaceOnUse" x="385.5" y="137.9" width="63.3" height="46.4" id="SVGID_9_">
			<g class="st24">
				
					<image style="overflow:visible;" width="142" height="106" xlink:href="3390EE1FE1F7BFE.jpg"  transform="matrix(0.48 0 0 0.48 383.04 135.84)">
				</image>
			</g>
		</mask>
		<g class="st25">
			<path class="st26" d="M445.6,168.7c0.7-2,1.3-4,1.8-6c1.3-1.4,1.9-3.6,1.2-5.5c0-0.1,0.1-0.3,0.1-0.4c1.1-6.3-8.7-8.1-9.8-1.8
				c-0.6,3.6-3.1,19.3-8.7,17.8c-7.9-2.2-0.5-15.1,1.6-18.8c3.2-5.6-5.8-9.9-9-4.3c-1.6,2.8-3.1,5.6-4.3,8.6
				c-1.2-9.3-8.4-18.9-18.1-20.4c-3.2-0.5-5.3,1.8-5.7,4.3c-7,5.1-11.1,14-8.2,22.5c0.1,0.4,0.3,0.8,0.4,1.2c-1.3,2.3-1,5.4,2,6.9
				c1.2,0.6,2.4,0.6,3.4,0.4c1.7,1.4,3.7,2.5,5.9,3.1c-0.2,1.8,0.5,3.8,2.7,4.8c2.7,1.3,5.1,0,6.3-2c1.6-0.7,2.7-2.3,3-4
				c3.2-1.5,5.4-3.7,6.7-6.3c0,0.1,0,0.3,0,0.4c0.5,4,2.3,7.6,5.2,10.1c0.2,1.4,1,2.8,2.7,3.6c1.8,0.9,3.4,0.6,4.7-0.2
				c1.4,0.2,2.6,0.2,3.8,0c2.2,2.1,6.3,2.3,8-1.2l4.2-8.8C446.2,171.3,446.1,169.9,445.6,168.7z M404.5,166.7
				c-3.9,1.2-7.5-1.6-8.6-5.3c-1.2-3.9,0.6-7.5,3.4-10.1c0.4,0.8,1.1,1.5,2.2,2c1.9,0.9,3.6,0.6,4.9-0.4c0.5,0.8,1,1.7,1.4,2.6
				C409.3,159.6,409.5,165.2,404.5,166.7z"/>
		</g>
	</g>
	<g>
		<g>
			<path class="st2" d="M488.2,179.2c1-2.9-0.8-7.2-5-7.2c-8.7-0.2-16.5-4.9-23.8-9.2c-5.5-3.3-9.9,5.8-4.3,9
				c3.3,1.9,6.5,3.7,9.8,5.3c-0.2,0.4-0.4,0.8-0.6,1.2c-2.2,1.1-3.5,3.9-2.8,6.3c-0.8,1.8-1.5,3.5-2.3,5.3c-0.6,0.5-1.1,1.1-1.4,1.8
				l-0.5,1c-0.2,0.5-0.4,0.9-0.4,1.4c-1.5,2.3-1.4,5.8,1.8,7.3c2.6,1.3,5,0.1,6.2-1.8c0.8-0.4,1.6-1.2,2-2.3
				c0.2-0.4,0.4-0.9,0.6-1.3c2.8-0.9,4.4-4.5,3.1-7.1c1.2-2.8,2.4-5.5,3.7-8.3c1.4,0.4,2.8,0.7,4.3,0.9c0.4,1,1.2,2,2.5,2.6
				C485,185.9,488.2,182.5,488.2,179.2z"/>
		</g>
		<defs>
			<filter id="Adobe_OpacityMaskFilter_5_" filterUnits="userSpaceOnUse" x="452.6" y="162" width="35.9" height="39.8">
				
					<feColorMatrix  type="matrix" values="-1 0 0 0 1  0 -1 0 0 1  0 0 -1 0 1  0 0 0 1 0" color-interpolation-filters="sRGB" result="source"/>
			</filter>
		</defs>
		<mask maskUnits="userSpaceOnUse" x="452.6" y="162" width="35.9" height="39.8" id="SVGID_10_">
			<g class="st27">
				
					<image style="overflow:visible;" width="84" height="92" xlink:href="3390EE1FE1F7BFF.jpg"  transform="matrix(0.48 0 0 0.48 450.24 159.84)">
				</image>
			</g>
		</mask>
		<g class="st28">
			<path class="st26" d="M488.2,179.2c1-2.9-0.8-7.2-5-7.2c-8.7-0.2-16.5-4.9-23.8-9.2c-5.5-3.3-9.9,5.8-4.3,9
				c3.3,1.9,6.5,3.7,9.8,5.3c-0.2,0.4-0.4,0.8-0.6,1.2c-2.2,1.1-3.5,3.9-2.8,6.3c-0.8,1.8-1.5,3.5-2.3,5.3c-0.6,0.5-1.1,1.1-1.4,1.8
				l-0.5,1c-0.2,0.5-0.4,0.9-0.4,1.4c-1.5,2.3-1.4,5.8,1.8,7.3c2.6,1.3,5,0.1,6.2-1.8c0.8-0.4,1.6-1.2,2-2.3
				c0.2-0.4,0.4-0.9,0.6-1.3c2.8-0.9,4.4-4.5,3.1-7.1c1.2-2.8,2.4-5.5,3.7-8.3c1.4,0.4,2.8,0.7,4.3,0.9c0.4,1,1.2,2,2.5,2.6
				C485,185.9,488.2,182.5,488.2,179.2z"/>
		</g>
	</g>
</g>
</svg>
