<?xml version="1.0" encoding="utf-8"?>
<!-- Generator: Adobe Illustrator 24.1.2, SVG Export Plug-In . SVG Version: 6.00 Build 0)  -->
<svg version="1.1" id="Layer_1" xmlns="http://www.w3.org/2000/svg" xmlns:xlink="http://www.w3.org/1999/xlink" x="0px" y="0px"
	 viewBox="0 0 500 500" style="enable-background:new 0 0 500 500;" xml:space="preserve">
<style type="text/css">
	.st0{clip-path:url(#SVGID_2_);}
	.st1{clip-path:url(#SVGID_4_);}
	.st2{fill:#6ADCFF;}
	.st3{fill:#FFFFFF;}
	.st4{clip-path:url(#SVGID_6_);fill:#3E00BF;}
	.st5{clip-path:url(#SVGID_8_);fill:#3E00BF;}
	.st6{clip-path:url(#SVGID_10_);fill:#3C02C1;}
	.st7{clip-path:url(#SVGID_12_);fill:#3A04C4;}
	.st8{clip-path:url(#SVGID_14_);fill:#3706C6;}
	.st9{clip-path:url(#SVGID_16_);fill:#3508C8;}
	.st10{clip-path:url(#SVGID_18_);fill:#330ACA;}
	.st11{clip-path:url(#SVGID_20_);fill:#310CCC;}
	.st12{clip-path:url(#SVGID_22_);fill:#2F0ECE;}
	.st13{clip-path:url(#SVGID_24_);fill:#2D10D0;}
	.st14{clip-path:url(#SVGID_26_);fill:#2B12D2;}
	.st15{clip-path:url(#SVGID_28_);fill:#2A14D4;}
	.st16{clip-path:url(#SVGID_30_);fill:#2815D6;}
	.st17{clip-path:url(#SVGID_32_);fill:#2617D8;}
	.st18{clip-path:url(#SVGID_34_);fill:#2419DA;}
	.st19{clip-path:url(#SVGID_36_);fill:#231ADB;}
	.st20{clip-path:url(#SVGID_38_);fill:#211CDD;}
	.st21{clip-path:url(#SVGID_40_);fill:#1F1DDF;}
	.st22{clip-path:url(#SVGID_42_);fill:#1E1FE0;}
	.st23{clip-path:url(#SVGID_44_);fill:#1C20E2;}
	.st24{clip-path:url(#SVGID_46_);fill:#1B21E3;}
	.st25{clip-path:url(#SVGID_48_);fill:#1A23E5;}
	.st26{clip-path:url(#SVGID_50_);fill:#1824E6;}
	.st27{clip-path:url(#SVGID_52_);fill:#1725E7;}
	.st28{clip-path:url(#SVGID_54_);fill:#1626E9;}
	.st29{clip-path:url(#SVGID_56_);fill:#1428EA;}
	.st30{clip-path:url(#SVGID_58_);fill:#1329EB;}
	.st31{clip-path:url(#SVGID_60_);fill:#122AEC;}
	.st32{clip-path:url(#SVGID_62_);fill:#112BEE;}
	.st33{clip-path:url(#SVGID_64_);fill:#102CEF;}
	.st34{clip-path:url(#SVGID_66_);fill:#0F2DF0;}
	.st35{clip-path:url(#SVGID_68_);fill:#0E2EF1;}
	.st36{clip-path:url(#SVGID_70_);fill:#0D2FF2;}
	.st37{clip-path:url(#SVGID_72_);fill:#0C30F3;}
	.st38{clip-path:url(#SVGID_74_);fill:#0B30F4;}
	.st39{clip-path:url(#SVGID_76_);fill:#0A31F4;}
	.st40{clip-path:url(#SVGID_78_);fill:#0932F5;}
	.st41{clip-path:url(#SVGID_80_);fill:#0933F6;}
	.st42{clip-path:url(#SVGID_82_);fill:#0833F7;}
	.st43{clip-path:url(#SVGID_84_);fill:#0734F8;}
	.st44{clip-path:url(#SVGID_86_);fill:#0735F8;}
	.st45{clip-path:url(#SVGID_88_);fill:#0635F9;}
	.st46{clip-path:url(#SVGID_90_);fill:#0536F9;}
	.st47{clip-path:url(#SVGID_92_);fill:#0536FA;}
	.st48{clip-path:url(#SVGID_94_);fill:#0437FB;}
	.st49{clip-path:url(#SVGID_96_);fill:#0437FB;}
	.st50{clip-path:url(#SVGID_98_);fill:#0338FC;}
	.st51{clip-path:url(#SVGID_100_);fill:#0338FC;}
	.st52{clip-path:url(#SVGID_102_);fill:#0339FC;}
	.st53{clip-path:url(#SVGID_104_);fill:#0239FD;}
	.st54{clip-path:url(#SVGID_106_);fill:#0239FD;}
	.st55{clip-path:url(#SVGID_108_);fill:#0239FD;}
	.st56{clip-path:url(#SVGID_110_);fill:#013AFE;}
	.st57{clip-path:url(#SVGID_112_);fill:#013AFE;}
	.st58{clip-path:url(#SVGID_114_);fill:#013AFE;}
	.st59{clip-path:url(#SVGID_116_);fill:#013AFE;}
	.st60{clip-path:url(#SVGID_118_);fill:#013BFE;}
	.st61{clip-path:url(#SVGID_120_);fill:#003BFF;}
	.st62{clip-path:url(#SVGID_122_);fill:#003BFF;}
	.st63{clip-path:url(#SVGID_124_);fill:#003BFF;}
	.st64{clip-path:url(#SVGID_126_);fill:#003BFF;}
	.st65{clip-path:url(#SVGID_128_);fill:#003BFF;}
	.st66{clip-path:url(#SVGID_130_);fill:#003BFF;}
	.st67{clip-path:url(#SVGID_132_);fill:#003BFF;}
	.st68{clip-path:url(#SVGID_134_);fill:#003BFF;}
	.st69{fill:#549FD6;}
	.st70{fill:#063670;}
	.st71{fill:#003582;}
	.st72{fill:#5BA9D8;}
</style>
<g id="Layer_1_1_">
	<g>
		<g>
			<defs>
				<path id="SVGID_1_" d="M396.4,470.7c-6.3,21.7-20.2,11.2-41.9-5c2.1-24.4-0.7-115.9-0.7-136.4V111.7c0-42.4,0-92.2-108.1-98.1
					c4.7-0.3,9.6-0.5,14.6-0.6c136.1-1.5,136.1,52.8,136.1,98.6v217.7C396.4,351.8,399.8,459.1,396.4,470.7z"/>
			</defs>
			<clipPath id="SVGID_2_">
				<use xlink:href="#SVGID_1_"  style="overflow:visible;"/>
			</clipPath>
			<g class="st0">
				<g>
					<g>
						<defs>
							<rect id="SVGID_3_" x="235" y="2.3" width="173.5" height="491.3"/>
						</defs>
						<clipPath id="SVGID_4_">
							<use xlink:href="#SVGID_3_"  style="overflow:visible;"/>
						</clipPath>
						<g class="st1">
							
								<image style="overflow:visible;enable-background:new    ;" width="365" height="1027" xlink:href="../../../../../../../../Users/ricardoshaffer/Desktop/Project-2/E0D36F7841A77857.jpg"  transform="matrix(0.4789 0 0 0.4789 234.4452 2.0175)">
							</image>
						</g>
					</g>
				</g>
			</g>
		</g>
	</g>
	<path class="st2" d="M354.5,465.7c-22.8-16.9-88.4-41.7-109.5-38.2c-12.8,2.1-73.7,18.9-91.5,32.6c-19.6,15.2-34.5,24.9-42.8-0.4
		C100,427.1,97.9,340.4,97.9,329.2V111.7c0-22.5,0-97.3,119.8-98.6c10.1-0.1,19.4,0.1,28,0.6c108.1,5.9,108.1,55.6,108.1,98.1v217.7
		C353.8,349.9,356.6,441.4,354.5,465.7z"/>
</g>
<g id="Layer_4">
	<ellipse class="st3" cx="268.5" cy="145.1" rx="81" ry="71.4"/>
	<g>
		<g>
			<g>
				<defs>
					<circle id="SVGID_5_" cx="301.5" cy="119.5" r="33"/>
				</defs>
				<clipPath id="SVGID_6_">
					<use xlink:href="#SVGID_5_"  style="overflow:visible;"/>
				</clipPath>
				<rect x="268.5" y="86.4" class="st4" width="66.1" height="66.1"/>
			</g>
			<g>
				<defs>
					<circle id="SVGID_7_" cx="301.5" cy="119.3" r="33"/>
				</defs>
				<clipPath id="SVGID_8_">
					<use xlink:href="#SVGID_7_"  style="overflow:visible;"/>
				</clipPath>
				
					<ellipse transform="matrix(0.9977 -6.827557e-02 6.827557e-02 0.9977 -7.4973 20.6474)" class="st5" cx="298.3" cy="120" rx="30.4" ry="44"/>
			</g>
			<g>
				<defs>
					<circle id="SVGID_9_" cx="301.5" cy="119.3" r="33"/>
				</defs>
				<clipPath id="SVGID_10_">
					<use xlink:href="#SVGID_9_"  style="overflow:visible;"/>
				</clipPath>
				
					<ellipse transform="matrix(0.9977 -6.827556e-02 6.827556e-02 0.9977 -7.4977 20.6336)" class="st6" cx="298.1" cy="120" rx="30" ry="43.4"/>
			</g>
			<g>
				<defs>
					<circle id="SVGID_11_" cx="301.5" cy="119.3" r="33"/>
				</defs>
				<clipPath id="SVGID_12_">
					<use xlink:href="#SVGID_11_"  style="overflow:visible;"/>
				</clipPath>
				
					<ellipse transform="matrix(0.9977 -6.827561e-02 6.827561e-02 0.9977 -7.4981 20.6198)" class="st7" cx="297.9" cy="120" rx="29.6" ry="42.8"/>
			</g>
			<g>
				<defs>
					<circle id="SVGID_13_" cx="301.5" cy="119.2" r="33"/>
				</defs>
				<clipPath id="SVGID_14_">
					<use xlink:href="#SVGID_13_"  style="overflow:visible;"/>
				</clipPath>
				
					<ellipse transform="matrix(0.9977 -6.827561e-02 6.827561e-02 0.9977 -7.5053 20.6067)" class="st8" cx="297.7" cy="120.1" rx="29.2" ry="42.2"/>
			</g>
			<g>
				<defs>
					<circle id="SVGID_15_" cx="301.5" cy="119.2" r="33"/>
				</defs>
				<clipPath id="SVGID_16_">
					<use xlink:href="#SVGID_15_"  style="overflow:visible;"/>
				</clipPath>
				
					<ellipse transform="matrix(0.9977 -6.827559e-02 6.827559e-02 0.9977 -7.5064 20.5861)" class="st9" cx="297.4" cy="120.1" rx="28.8" ry="41.6"/>
			</g>
			<g>
				<defs>
					<circle id="SVGID_17_" cx="301.5" cy="119.2" r="33"/>
				</defs>
				<clipPath id="SVGID_18_">
					<use xlink:href="#SVGID_17_"  style="overflow:visible;"/>
				</clipPath>
				
					<ellipse transform="matrix(0.9977 -6.827559e-02 6.827559e-02 0.9977 -7.5068 20.5723)" class="st10" cx="297.2" cy="120.1" rx="28.3" ry="41"/>
			</g>
			<g>
				<defs>
					<circle id="SVGID_19_" cx="301.5" cy="119.2" r="33"/>
				</defs>
				<clipPath id="SVGID_20_">
					<use xlink:href="#SVGID_19_"  style="overflow:visible;"/>
				</clipPath>
				
					<ellipse transform="matrix(0.9977 -6.827559e-02 6.827559e-02 0.9977 -7.514 20.5591)" class="st11" cx="297" cy="120.2" rx="27.9" ry="40.4"/>
			</g>
			<g>
				<defs>
					<circle id="SVGID_21_" cx="301.5" cy="119.2" r="33"/>
				</defs>
				<clipPath id="SVGID_22_">
					<use xlink:href="#SVGID_21_"  style="overflow:visible;"/>
				</clipPath>
				
					<ellipse transform="matrix(0.9977 -6.827561e-02 6.827561e-02 0.9977 -7.5144 20.5453)" class="st12" cx="296.8" cy="120.2" rx="27.5" ry="39.9"/>
			</g>
			<g>
				<defs>
					<circle id="SVGID_23_" cx="301.4" cy="119.2" r="33"/>
				</defs>
				<clipPath id="SVGID_24_">
					<use xlink:href="#SVGID_23_"  style="overflow:visible;"/>
				</clipPath>
				
					<ellipse transform="matrix(0.9977 -6.827559e-02 6.827559e-02 0.9977 -7.5148 20.5315)" class="st13" cx="296.6" cy="120.2" rx="27.1" ry="39.3"/>
			</g>
			<g>
				<defs>
					<circle id="SVGID_25_" cx="301.4" cy="119.2" r="33"/>
				</defs>
				<clipPath id="SVGID_26_">
					<use xlink:href="#SVGID_25_"  style="overflow:visible;"/>
				</clipPath>
				
					<ellipse transform="matrix(0.9977 -6.827561e-02 6.827561e-02 0.9977 -7.522 20.5184)" class="st14" cx="296.4" cy="120.3" rx="26.7" ry="38.7"/>
			</g>
			<g>
				<defs>
					<circle id="SVGID_27_" cx="301.4" cy="119.1" r="33"/>
				</defs>
				<clipPath id="SVGID_28_">
					<use xlink:href="#SVGID_27_"  style="overflow:visible;"/>
				</clipPath>
				
					<ellipse transform="matrix(0.9977 -6.827559e-02 6.827559e-02 0.9977 -7.5231 20.4978)" class="st15" cx="296.1" cy="120.3" rx="26.3" ry="38.1"/>
			</g>
			<g>
				<defs>
					<circle id="SVGID_29_" cx="301.4" cy="119.1" r="33"/>
				</defs>
				<clipPath id="SVGID_30_">
					<use xlink:href="#SVGID_29_"  style="overflow:visible;"/>
				</clipPath>
				
					<ellipse transform="matrix(0.9977 -6.827556e-02 6.827556e-02 0.9977 -7.5234 20.484)" class="st16" cx="295.9" cy="120.3" rx="25.9" ry="37.5"/>
			</g>
			<g>
				<defs>
					<circle id="SVGID_31_" cx="301.4" cy="119.1" r="33"/>
				</defs>
				<clipPath id="SVGID_32_">
					<use xlink:href="#SVGID_31_"  style="overflow:visible;"/>
				</clipPath>
				
					<ellipse transform="matrix(0.9977 -6.827559e-02 6.827559e-02 0.9977 -7.5306 20.4709)" class="st17" cx="295.7" cy="120.4" rx="25.5" ry="36.9"/>
			</g>
			<g>
				<defs>
					<circle id="SVGID_33_" cx="301.4" cy="119.1" r="33"/>
				</defs>
				<clipPath id="SVGID_34_">
					<use xlink:href="#SVGID_33_"  style="overflow:visible;"/>
				</clipPath>
				
					<ellipse transform="matrix(0.9977 -6.827559e-02 6.827559e-02 0.9977 -7.531 20.457)" class="st18" cx="295.5" cy="120.4" rx="25.1" ry="36.3"/>
			</g>
			<g>
				<defs>
					<circle id="SVGID_35_" cx="301.4" cy="119.1" r="33"/>
				</defs>
				<clipPath id="SVGID_36_">
					<use xlink:href="#SVGID_35_"  style="overflow:visible;"/>
				</clipPath>
				
					<ellipse transform="matrix(0.9977 -6.827562e-02 6.827562e-02 0.9977 -7.5314 20.4432)" class="st19" cx="295.3" cy="120.4" rx="24.7" ry="35.7"/>
			</g>
			<g>
				<defs>
					<circle id="SVGID_37_" cx="301.4" cy="119.1" r="33"/>
				</defs>
				<clipPath id="SVGID_38_">
					<use xlink:href="#SVGID_37_"  style="overflow:visible;"/>
				</clipPath>
				
					<ellipse transform="matrix(0.9977 -6.827556e-02 6.827556e-02 0.9977 -7.5386 20.4301)" class="st20" cx="295.1" cy="120.5" rx="24.3" ry="35.1"/>
			</g>
			<g>
				<defs>
					<circle id="SVGID_39_" cx="301.4" cy="119.1" r="33"/>
				</defs>
				<clipPath id="SVGID_40_">
					<use xlink:href="#SVGID_39_"  style="overflow:visible;"/>
				</clipPath>
				
					<ellipse transform="matrix(0.9977 -6.827556e-02 6.827556e-02 0.9977 -7.5397 20.4095)" class="st21" cx="294.8" cy="120.5" rx="23.9" ry="34.5"/>
			</g>
			<g>
				<defs>
					<circle id="SVGID_41_" cx="301.4" cy="119" r="33"/>
				</defs>
				<clipPath id="SVGID_42_">
					<use xlink:href="#SVGID_41_"  style="overflow:visible;"/>
				</clipPath>
				
					<ellipse transform="matrix(0.9977 -6.827560e-02 6.827560e-02 0.9977 -7.5401 20.3957)" class="st22" cx="294.6" cy="120.5" rx="23.4" ry="33.9"/>
			</g>
			<g>
				<defs>
					<circle id="SVGID_43_" cx="301.4" cy="119" r="33"/>
				</defs>
				<clipPath id="SVGID_44_">
					<use xlink:href="#SVGID_43_"  style="overflow:visible;"/>
				</clipPath>
				
					<ellipse transform="matrix(0.9977 -6.827556e-02 6.827556e-02 0.9977 -7.5473 20.3825)" class="st23" cx="294.4" cy="120.6" rx="23" ry="33.4"/>
			</g>
			<g>
				<defs>
					<circle id="SVGID_45_" cx="301.4" cy="119" r="33"/>
				</defs>
				<clipPath id="SVGID_46_">
					<use xlink:href="#SVGID_45_"  style="overflow:visible;"/>
				</clipPath>
				
					<ellipse transform="matrix(0.9977 -6.827561e-02 6.827561e-02 0.9977 -7.5477 20.3688)" class="st24" cx="294.2" cy="120.6" rx="22.6" ry="32.8"/>
			</g>
			<g>
				<defs>
					<circle id="SVGID_47_" cx="301.4" cy="119" r="33"/>
				</defs>
				<clipPath id="SVGID_48_">
					<use xlink:href="#SVGID_47_"  style="overflow:visible;"/>
				</clipPath>
				
					<ellipse transform="matrix(0.9977 -6.827559e-02 6.827559e-02 0.9977 -7.5481 20.3549)" class="st25" cx="294" cy="120.6" rx="22.2" ry="32.2"/>
			</g>
			<g>
				<defs>
					<circle id="SVGID_49_" cx="301.4" cy="119" r="33"/>
				</defs>
				<clipPath id="SVGID_50_">
					<use xlink:href="#SVGID_49_"  style="overflow:visible;"/>
				</clipPath>
				
					<ellipse transform="matrix(0.9977 -6.827561e-02 6.827561e-02 0.9977 -7.556 20.335)" class="st26" cx="293.7" cy="120.7" rx="21.8" ry="31.6"/>
			</g>
			<g>
				<defs>
					<circle id="SVGID_51_" cx="301.4" cy="119" r="33"/>
				</defs>
				<clipPath id="SVGID_52_">
					<use xlink:href="#SVGID_51_"  style="overflow:visible;"/>
				</clipPath>
				
					<ellipse transform="matrix(0.9977 -6.827556e-02 6.827556e-02 0.9977 -7.5564 20.3212)" class="st27" cx="293.5" cy="120.7" rx="21.4" ry="31"/>
			</g>
			<g>
				<defs>
					<circle id="SVGID_53_" cx="301.4" cy="118.9" r="33"/>
				</defs>
				<clipPath id="SVGID_54_">
					<use xlink:href="#SVGID_53_"  style="overflow:visible;"/>
				</clipPath>
				
					<ellipse transform="matrix(0.9977 -6.827556e-02 6.827556e-02 0.9977 -7.5568 20.3074)" class="st28" cx="293.3" cy="120.7" rx="21" ry="30.4"/>
			</g>
			<g>
				<defs>
					<circle id="SVGID_55_" cx="301.4" cy="118.9" r="33"/>
				</defs>
				<clipPath id="SVGID_56_">
					<use xlink:href="#SVGID_55_"  style="overflow:visible;"/>
				</clipPath>
				
					<ellipse transform="matrix(0.9977 -6.827561e-02 6.827561e-02 0.9977 -7.564 20.2943)" class="st29" cx="293.1" cy="120.8" rx="20.6" ry="29.8"/>
			</g>
			<g>
				<defs>
					<circle id="SVGID_57_" cx="301.4" cy="118.9" r="33"/>
				</defs>
				<clipPath id="SVGID_58_">
					<use xlink:href="#SVGID_57_"  style="overflow:visible;"/>
				</clipPath>
				
					<ellipse transform="matrix(0.9977 -6.827561e-02 6.827561e-02 0.9977 -7.5644 20.2805)" class="st30" cx="292.9" cy="120.8" rx="20.2" ry="29.2"/>
			</g>
			<g>
				<defs>
					<circle id="SVGID_59_" cx="301.4" cy="118.9" r="33"/>
				</defs>
				<clipPath id="SVGID_60_">
					<use xlink:href="#SVGID_59_"  style="overflow:visible;"/>
				</clipPath>
				
					<ellipse transform="matrix(0.9977 -6.827557e-02 6.827557e-02 0.9977 -7.5648 20.2666)" class="st31" cx="292.7" cy="120.8" rx="19.8" ry="28.6"/>
			</g>
			<g>
				<defs>
					<circle id="SVGID_61_" cx="301.4" cy="118.9" r="33"/>
				</defs>
				<clipPath id="SVGID_62_">
					<use xlink:href="#SVGID_61_"  style="overflow:visible;"/>
				</clipPath>
				
					<ellipse transform="matrix(0.9977 -6.827557e-02 6.827557e-02 0.9977 -7.5727 20.2467)" class="st32" cx="292.4" cy="120.9" rx="19.4" ry="28"/>
			</g>
			<g>
				<defs>
					<circle id="SVGID_63_" cx="301.4" cy="118.9" r="33"/>
				</defs>
				<clipPath id="SVGID_64_">
					<use xlink:href="#SVGID_63_"  style="overflow:visible;"/>
				</clipPath>
				
					<ellipse transform="matrix(0.9977 -6.827559e-02 6.827559e-02 0.9977 -7.5731 20.2329)" class="st33" cx="292.2" cy="120.9" rx="19" ry="27.4"/>
			</g>
			<g>
				<defs>
					<circle id="SVGID_65_" cx="301.4" cy="118.9" r="33"/>
				</defs>
				<clipPath id="SVGID_66_">
					<use xlink:href="#SVGID_65_"  style="overflow:visible;"/>
				</clipPath>
				
					<ellipse transform="matrix(0.9977 -6.827559e-02 6.827559e-02 0.9977 -7.5734 20.2191)" class="st34" cx="292" cy="120.9" rx="18.5" ry="26.9"/>
			</g>
			<g>
				<defs>
					<circle id="SVGID_67_" cx="301.4" cy="118.8" r="33"/>
				</defs>
				<clipPath id="SVGID_68_">
					<use xlink:href="#SVGID_67_"  style="overflow:visible;"/>
				</clipPath>
				
					<ellipse transform="matrix(0.9977 -6.827557e-02 6.827557e-02 0.9977 -7.5806 20.206)" class="st35" cx="291.8" cy="121" rx="18.1" ry="26.3"/>
			</g>
			<g>
				<defs>
					<circle id="SVGID_69_" cx="301.4" cy="118.8" r="33"/>
				</defs>
				<clipPath id="SVGID_70_">
					<use xlink:href="#SVGID_69_"  style="overflow:visible;"/>
				</clipPath>
				
					<ellipse transform="matrix(0.9977 -6.827564e-02 6.827564e-02 0.9977 -7.581 20.1922)" class="st36" cx="291.6" cy="121" rx="17.7" ry="25.7"/>
			</g>
			<g>
				<defs>
					<circle id="SVGID_71_" cx="301.4" cy="118.8" r="33"/>
				</defs>
				<clipPath id="SVGID_72_">
					<use xlink:href="#SVGID_71_"  style="overflow:visible;"/>
				</clipPath>
				
					<ellipse transform="matrix(0.9977 -6.827559e-02 6.827559e-02 0.9977 -7.5814 20.1783)" class="st37" cx="291.4" cy="121" rx="17.3" ry="25.1"/>
			</g>
			<g>
				<defs>
					<circle id="SVGID_73_" cx="301.4" cy="118.8" r="33"/>
				</defs>
				<clipPath id="SVGID_74_">
					<use xlink:href="#SVGID_73_"  style="overflow:visible;"/>
				</clipPath>
				
					<ellipse transform="matrix(0.9977 -6.827550e-02 6.827550e-02 0.9977 -7.5893 20.1584)" class="st38" cx="291.1" cy="121.1" rx="16.9" ry="24.5"/>
			</g>
			<g>
				<defs>
					<circle id="SVGID_75_" cx="301.4" cy="118.8" r="33"/>
				</defs>
				<clipPath id="SVGID_76_">
					<use xlink:href="#SVGID_75_"  style="overflow:visible;"/>
				</clipPath>
				
					<ellipse transform="matrix(0.9977 -6.827559e-02 6.827559e-02 0.9977 -7.5897 20.1446)" class="st39" cx="290.9" cy="121.1" rx="16.5" ry="23.9"/>
			</g>
			<g>
				<defs>
					<circle id="SVGID_77_" cx="301.4" cy="118.8" r="33"/>
				</defs>
				<clipPath id="SVGID_78_">
					<use xlink:href="#SVGID_77_"  style="overflow:visible;"/>
				</clipPath>
				
					<ellipse transform="matrix(0.9977 -6.827559e-02 6.827559e-02 0.9977 -7.5901 20.1308)" class="st40" cx="290.7" cy="121.1" rx="16.1" ry="23.3"/>
			</g>
			<g>
				<defs>
					<circle id="SVGID_79_" cx="301.4" cy="118.8" r="33"/>
				</defs>
				<clipPath id="SVGID_80_">
					<use xlink:href="#SVGID_79_"  style="overflow:visible;"/>
				</clipPath>
				
					<ellipse transform="matrix(0.9977 -6.827565e-02 6.827565e-02 0.9977 -7.5973 20.1177)" class="st41" cx="290.5" cy="121.2" rx="15.7" ry="22.7"/>
			</g>
			<g>
				<defs>
					<circle id="SVGID_81_" cx="301.4" cy="118.7" r="33"/>
				</defs>
				<clipPath id="SVGID_82_">
					<use xlink:href="#SVGID_81_"  style="overflow:visible;"/>
				</clipPath>
				
					<ellipse transform="matrix(0.9977 -6.827559e-02 6.827559e-02 0.9977 -7.5977 20.1039)" class="st42" cx="290.3" cy="121.2" rx="15.3" ry="22.1"/>
			</g>
			<g>
				<defs>
					<circle id="SVGID_83_" cx="301.4" cy="118.7" r="33"/>
				</defs>
				<clipPath id="SVGID_84_">
					<use xlink:href="#SVGID_83_"  style="overflow:visible;"/>
				</clipPath>
				
					<ellipse transform="matrix(0.9977 -6.827561e-02 6.827561e-02 0.9977 -7.5981 20.0901)" class="st43" cx="290.1" cy="121.2" rx="14.9" ry="21.5"/>
			</g>
			<g>
				<defs>
					<circle id="SVGID_85_" cx="301.4" cy="118.7" r="33"/>
				</defs>
				<clipPath id="SVGID_86_">
					<use xlink:href="#SVGID_85_"  style="overflow:visible;"/>
				</clipPath>
				
					<ellipse transform="matrix(0.9977 -6.827561e-02 6.827561e-02 0.9977 -7.606 20.0702)" class="st44" cx="289.8" cy="121.3" rx="14.5" ry="20.9"/>
			</g>
			<g>
				<defs>
					<circle id="SVGID_87_" cx="301.4" cy="118.7" r="33"/>
				</defs>
				<clipPath id="SVGID_88_">
					<use xlink:href="#SVGID_87_"  style="overflow:visible;"/>
				</clipPath>
				
					<ellipse transform="matrix(0.9977 -6.827553e-02 6.827553e-02 0.9977 -7.6064 20.0563)" class="st45" cx="289.6" cy="121.3" rx="14.1" ry="20.4"/>
			</g>
			<g>
				<defs>
					<circle id="SVGID_89_" cx="301.4" cy="118.7" r="33"/>
				</defs>
				<clipPath id="SVGID_90_">
					<use xlink:href="#SVGID_89_"  style="overflow:visible;"/>
				</clipPath>
				
					<ellipse transform="matrix(0.9977 -6.827559e-02 6.827559e-02 0.9977 -7.6068 20.0425)" class="st46" cx="289.4" cy="121.3" rx="13.7" ry="19.8"/>
			</g>
			<g>
				<defs>
					<circle id="SVGID_91_" cx="301.4" cy="118.7" r="33"/>
				</defs>
				<clipPath id="SVGID_92_">
					<use xlink:href="#SVGID_91_"  style="overflow:visible;"/>
				</clipPath>
				
					<ellipse transform="matrix(0.9977 -6.827561e-02 6.827561e-02 0.9977 -7.614 20.0294)" class="st47" cx="289.2" cy="121.4" rx="13.2" ry="19.2"/>
			</g>
			<g>
				<defs>
					<circle id="SVGID_93_" cx="301.4" cy="118.7" r="33"/>
				</defs>
				<clipPath id="SVGID_94_">
					<use xlink:href="#SVGID_93_"  style="overflow:visible;"/>
				</clipPath>
				
					<ellipse transform="matrix(0.9977 -6.827564e-02 6.827564e-02 0.9977 -7.6144 20.0156)" class="st48" cx="289" cy="121.4" rx="12.8" ry="18.6"/>
			</g>
			<g>
				<defs>
					<circle id="SVGID_95_" cx="301.3" cy="118.6" r="33"/>
				</defs>
				<clipPath id="SVGID_96_">
					<use xlink:href="#SVGID_95_"  style="overflow:visible;"/>
				</clipPath>
				
					<ellipse transform="matrix(0.9977 -6.827556e-02 6.827556e-02 0.9977 -7.6155 19.995)" class="st49" cx="288.7" cy="121.4" rx="12.4" ry="18"/>
			</g>
			<g>
				<defs>
					<circle id="SVGID_97_" cx="301.3" cy="118.6" r="33"/>
				</defs>
				<clipPath id="SVGID_98_">
					<use xlink:href="#SVGID_97_"  style="overflow:visible;"/>
				</clipPath>
				
					<ellipse transform="matrix(0.9977 -6.827556e-02 6.827556e-02 0.9977 -7.6227 19.9818)" class="st50" cx="288.5" cy="121.5" rx="12" ry="17.4"/>
			</g>
			<g>
				<defs>
					<circle id="SVGID_99_" cx="301.3" cy="118.6" r="33"/>
				</defs>
				<clipPath id="SVGID_100_">
					<use xlink:href="#SVGID_99_"  style="overflow:visible;"/>
				</clipPath>
				
					<ellipse transform="matrix(0.9977 -6.827564e-02 6.827564e-02 0.9977 -7.6231 19.9681)" class="st51" cx="288.3" cy="121.5" rx="11.6" ry="16.8"/>
			</g>
			<g>
				<defs>
					<circle id="SVGID_101_" cx="301.3" cy="118.6" r="33"/>
				</defs>
				<clipPath id="SVGID_102_">
					<use xlink:href="#SVGID_101_"  style="overflow:visible;"/>
				</clipPath>
				
					<ellipse transform="matrix(0.9977 -6.827553e-02 6.827553e-02 0.9977 -7.6234 19.9542)" class="st52" cx="288.1" cy="121.5" rx="11.2" ry="16.2"/>
			</g>
			<g>
				<defs>
					<circle id="SVGID_103_" cx="301.3" cy="118.6" r="33"/>
				</defs>
				<clipPath id="SVGID_104_">
					<use xlink:href="#SVGID_103_"  style="overflow:visible;"/>
				</clipPath>
				
					<ellipse transform="matrix(0.9977 -6.827561e-02 6.827561e-02 0.9977 -7.6306 19.9411)" class="st53" cx="287.9" cy="121.6" rx="10.8" ry="15.6"/>
			</g>
			<g>
				<defs>
					<circle id="SVGID_105_" cx="301.3" cy="118.6" r="33"/>
				</defs>
				<clipPath id="SVGID_106_">
					<use xlink:href="#SVGID_105_"  style="overflow:visible;"/>
				</clipPath>
				
					<ellipse transform="matrix(0.9977 -6.827554e-02 6.827554e-02 0.9977 -7.631 19.9273)" class="st54" cx="287.7" cy="121.6" rx="10.4" ry="15"/>
			</g>
			<g>
				<defs>
					<circle id="SVGID_107_" cx="301.3" cy="118.5" r="33"/>
				</defs>
				<clipPath id="SVGID_108_">
					<use xlink:href="#SVGID_107_"  style="overflow:visible;"/>
				</clipPath>
				
					<ellipse transform="matrix(0.9977 -6.827556e-02 6.827556e-02 0.9977 -7.6321 19.9067)" class="st55" cx="287.4" cy="121.6" rx="10" ry="14.4"/>
			</g>
			<g>
				<defs>
					<circle id="SVGID_109_" cx="301.3" cy="118.5" r="33"/>
				</defs>
				<clipPath id="SVGID_110_">
					<use xlink:href="#SVGID_109_"  style="overflow:visible;"/>
				</clipPath>
				
					<ellipse transform="matrix(0.9977 -6.827559e-02 6.827559e-02 0.9977 -7.6393 19.8936)" class="st56" cx="287.2" cy="121.7" rx="9.6" ry="13.9"/>
			</g>
			<g>
				<defs>
					<circle id="SVGID_111_" cx="301.3" cy="118.5" r="33"/>
				</defs>
				<clipPath id="SVGID_112_">
					<use xlink:href="#SVGID_111_"  style="overflow:visible;"/>
				</clipPath>
				
					<ellipse transform="matrix(0.9977 -6.827556e-02 6.827556e-02 0.9977 -7.6397 19.8797)" class="st57" cx="287" cy="121.7" rx="9.2" ry="13.3"/>
			</g>
			<g>
				<defs>
					<circle id="SVGID_113_" cx="301.3" cy="118.5" r="33"/>
				</defs>
				<clipPath id="SVGID_114_">
					<use xlink:href="#SVGID_113_"  style="overflow:visible;"/>
				</clipPath>
				
					<ellipse transform="matrix(0.9977 -6.827567e-02 6.827567e-02 0.9977 -7.6401 19.866)" class="st58" cx="286.8" cy="121.7" rx="8.8" ry="12.7"/>
			</g>
			<g>
				<defs>
					<circle id="SVGID_115_" cx="301.3" cy="118.5" r="33"/>
				</defs>
				<clipPath id="SVGID_116_">
					<use xlink:href="#SVGID_115_"  style="overflow:visible;"/>
				</clipPath>
				
					<ellipse transform="matrix(0.9977 -6.827567e-02 6.827567e-02 0.9977 -7.6473 19.8528)" class="st59" cx="286.6" cy="121.8" rx="8.3" ry="12.1"/>
			</g>
			<g>
				<defs>
					<circle id="SVGID_117_" cx="301.3" cy="118.5" r="33"/>
				</defs>
				<clipPath id="SVGID_118_">
					<use xlink:href="#SVGID_117_"  style="overflow:visible;"/>
				</clipPath>
				
					<ellipse transform="matrix(0.9977 -6.827559e-02 6.827559e-02 0.9977 -7.6477 19.839)" class="st60" cx="286.4" cy="121.8" rx="7.9" ry="11.5"/>
			</g>
			<g>
				<defs>
					<circle id="SVGID_119_" cx="301.3" cy="118.5" r="33"/>
				</defs>
				<clipPath id="SVGID_120_">
					<use xlink:href="#SVGID_119_"  style="overflow:visible;"/>
				</clipPath>
				
					<ellipse transform="matrix(0.9977 -6.827559e-02 6.827559e-02 0.9977 -7.6488 19.8184)" class="st61" cx="286.1" cy="121.8" rx="7.5" ry="10.9"/>
			</g>
			<g>
				<defs>
					<circle id="SVGID_121_" cx="301.3" cy="118.4" r="33"/>
				</defs>
				<clipPath id="SVGID_122_">
					<use xlink:href="#SVGID_121_"  style="overflow:visible;"/>
				</clipPath>
				
					<ellipse transform="matrix(0.9977 -6.827556e-02 6.827556e-02 0.9977 -7.656 19.8053)" class="st62" cx="285.9" cy="121.9" rx="7.1" ry="10.3"/>
			</g>
			<g>
				<defs>
					<circle id="SVGID_123_" cx="301.3" cy="118.4" r="33"/>
				</defs>
				<clipPath id="SVGID_124_">
					<use xlink:href="#SVGID_123_"  style="overflow:visible;"/>
				</clipPath>
				
					<ellipse transform="matrix(0.9977 -6.827557e-02 6.827557e-02 0.9977 -7.6564 19.7914)" class="st63" cx="285.7" cy="121.9" rx="6.7" ry="9.7"/>
			</g>
			<g>
				<defs>
					<circle id="SVGID_125_" cx="301.3" cy="118.4" r="33"/>
				</defs>
				<clipPath id="SVGID_126_">
					<use xlink:href="#SVGID_125_"  style="overflow:visible;"/>
				</clipPath>
				
					<ellipse transform="matrix(0.9977 -6.827557e-02 6.827557e-02 0.9977 -7.6568 19.7776)" class="st64" cx="285.5" cy="121.9" rx="6.3" ry="9.1"/>
			</g>
			<g>
				<defs>
					<circle id="SVGID_127_" cx="301.3" cy="118.4" r="33"/>
				</defs>
				<clipPath id="SVGID_128_">
					<use xlink:href="#SVGID_127_"  style="overflow:visible;"/>
				</clipPath>
				
					<ellipse transform="matrix(0.9977 -6.827567e-02 6.827567e-02 0.9977 -7.664 19.7645)" class="st65" cx="285.3" cy="122" rx="5.9" ry="8.5"/>
			</g>
			<g>
				<defs>
					<circle id="SVGID_129_" cx="301.3" cy="118.4" r="33"/>
				</defs>
				<clipPath id="SVGID_130_">
					<use xlink:href="#SVGID_129_"  style="overflow:visible;"/>
				</clipPath>
				
					<ellipse transform="matrix(0.9977 -6.827567e-02 6.827567e-02 0.9977 -7.6651 19.7439)" class="st66" cx="285" cy="122" rx="5.5" ry="7.9"/>
			</g>
			<g>
				<defs>
					<circle id="SVGID_131_" cx="301.3" cy="118.4" r="33"/>
				</defs>
				<clipPath id="SVGID_132_">
					<use xlink:href="#SVGID_131_"  style="overflow:visible;"/>
				</clipPath>
				
					<ellipse transform="matrix(0.9977 -6.827541e-02 6.827541e-02 0.9977 -7.6654 19.73)" class="st67" cx="284.8" cy="122" rx="5.1" ry="7.4"/>
			</g>
			<g>
				<defs>
					<circle id="SVGID_133_" cx="301.3" cy="118.4" r="33"/>
				</defs>
				<clipPath id="SVGID_134_">
					<use xlink:href="#SVGID_133_"  style="overflow:visible;"/>
				</clipPath>
				
					<ellipse transform="matrix(0.9977 -6.827561e-02 6.827561e-02 0.9977 -7.6727 19.717)" class="st68" cx="284.6" cy="122.1" rx="4.7" ry="6.8"/>
			</g>
		</g>
	</g>
</g>
<g id="Layer_5">
	<path class="st69" d="M351,162.1c-5.2,37.9-40.6,67.2-83.6,67.2S191.1,200,186,162.1c17.7,26.3,46.4,43.8,81.4,43.8
		S333.4,188.4,351,162.1z"/>
</g>
<g id="Layer_3">
	<g>
		<path class="st70" d="M355.9,379.6c0,6.3-0.4,11.4-1.2,15.3c-6.9-54-42.9-99.5-86.2-99.5s-79.3,45.5-86.2,99.5
			c-0.8-4-1.2-9-1.2-15.3c0-61.8,39.1-118.3,87.4-118.3S355.9,317.8,355.9,379.6z"/>
		<path class="st71" d="M354.7,394.9c-6.9,34.7-42.9-14.3-86.2-14.3s-79.3,49-86.2,14.3c6.9-54,42.9-99.5,86.2-99.5
			S347.8,340.9,354.7,394.9z"/>
	</g>
</g>
<g id="Layer_2_1_">
	<g>
		<path class="st72" d="M246.9,427.8c-43.6,13.8-79.1,75-93.4,32.4c17.8-13.8,39.5-32.1,63.8-33C227,426.9,236.5,427.6,246.9,427.8z
			"/>
		<path class="st69" d="M354.5,465.7c-0.2,2.3-0.4,4-0.7,5c-11.3,39.1-47.1-28.3-109.1-42.9c4.6-0.3,10-0.4,15.2-0.6
			C300.3,425.7,331.7,448.8,354.5,465.7z"/>
	</g>
</g>
</svg>
