<?xml version="1.0" encoding="utf-8"?>
<!-- Generator: Adobe Illustrator 24.1.2, SVG Export Plug-In . SVG Version: 6.00 Build 0)  -->
<svg version="1.1" id="Layer_1" xmlns="http://www.w3.org/2000/svg" xmlns:xlink="http://www.w3.org/1999/xlink" x="0px" y="0px"
	 viewBox="0 0 100 150" style="enable-background:new 0 0 100 150;" xml:space="preserve">
<style type="text/css">
	.st0{fill:none;stroke:#FFFFFF;stroke-width:1.8097;stroke-miterlimit:10;}
	.st1{fill:#FFFFFF;}
</style>
<g>
	<path class="st0" d="M88.4,17.9L43.6,95.4c-5.8,5.8-5.8,7.6-19.3,3.9c-5.5-2.6-15.7-11-11.8-18L57.7,1.7"/>
</g>
<path class="st0" d="M88.4,17.9c-1,1.8-9.1-1-17.2-5.4S56.7,3.4,57.7,1.7c1-1.8,9,0.1,17.1,4.5S89.4,16.2,88.4,17.9z"/>
<path class="st1" d="M50,84.2l-2.7,4.7c-3.9-0.9-8.9-2.6-14.3-5.5c0,0,0,0,0,0c-0.2-0.1-0.4-0.2-0.6-0.3c-6.7-3.7-11.4-8-14.6-11.2
	c0.9-1.6,1.8-3.1,2.7-4.7c3.1,3.1,7.6,7,13.6,10.5c0.5,0.3,1,0.6,1.5,0.8c0,0,0,0,0,0C41.2,81.5,46.2,83.2,50,84.2z"/>
<path class="st1" d="M64.5,58.9l-2.7,4.7c-3.9-1-9.1-2.6-14.7-5.7c0,0-0.1,0-0.1,0c-0.1,0-0.1-0.1-0.2-0.1
	c-6.7-3.7-11.4-8-14.6-11.2c0.9-1.6,1.8-3.1,2.7-4.7c3.1,3.1,7.6,7,13.6,10.5c0.4,0.2,0.7,0.4,1.1,0.6c0,0,0.1,0.1,0.1,0.1
	C55.4,56.1,60.6,57.8,64.5,58.9z"/>
<path class="st1" d="M80.8,29.9l-2.7,4.7c-4-1-9.3-2.7-15-5.8c0,0,0,0,0,0c0,0-0.1,0-0.1-0.1c-6.6-3.6-11.3-7.9-14.4-11.1
	c0,0,0,0-0.1-0.1c0.9-1.6,1.8-3.1,2.7-4.7l0,0c3.1,3.1,7.6,7,13.6,10.5c0.3,0.2,0.5,0.3,0.8,0.4v0c0.1,0,0.1,0.1,0.1,0.1
	C71.6,27.1,76.8,28.9,80.8,29.9z"/>
<path class="st1" d="M88.4,30.6c0.1,2.7,0,5-0.2,7.3c-0.7,9.3-2.9,15.4-3.4,25.3c-0.2,4.4-0.2,10.4,1,17.7c0,0,0,0,0,0
	c0.2,1.3,0.5,2.6,0.8,4c-0.2,0.5-0.5,0.9-0.8,1.4c-1.4,2.5-3.7,5.4-4.7,7.6c-1.1,2.4-0.7,6.6-1.8,9c0,0-1.8,0-3.6,1.8
	c-0.9,0.9-0.3,5.1-0.3,5.1c-0.9,2-4.3,5.6-5.2,7.6c-0.8,1.8,0.9,2,0.1,3.8c-0.9,2-2.8,1.4-3.7,3.4c0,0-1.8,7.2-1.4,8.1l-4.1,6.4
	c0,0-0.6,2-1.3,4.4c-0.7,2.3-1.5,4.4-2.3,6.5c-1.5-7.5-3.8-16.1-7.2-25.3c-1.6-4.3-2.6-10.3-3.7-15.9c-1-5.2-3.8-10.1-5.4-13.1
	c18.1-29,31.5-49.4,47.1-77.8C89,20.9,88.3,25.2,88.4,30.6z"/>
</svg>
