<?xml version="1.0" encoding="utf-8"?>
<!-- Generator: Adobe Illustrator 24.1.2, SVG Export Plug-In . SVG Version: 6.00 Build 0)  -->
<svg version="1.1" id="Layer_1" xmlns="http://www.w3.org/2000/svg" xmlns:xlink="http://www.w3.org/1999/xlink" x="0px" y="0px"
	 viewBox="0 0 100 150" style="enable-background:new 0 0 100 150;" xml:space="preserve">
<style type="text/css">
	.st0{fill:none;stroke:#FFFFFF;stroke-width:1.6878;stroke-miterlimit:10;}
</style>
<path class="st0" d="M97.6,29.6l-0.1,86.1c0,7.1-19.4,12.9-43.9,13.4c-1.1,0-2.2,0-3.4,0c-26.1,0-47.2-6.1-47.2-13.6l0.1-86.1
	c0,0.7,0.2,1.4,0.6,2.1c0.1,0.2,0.2,0.4,0.4,0.6c0.2,0.2,0.3,0.5,0.6,0.7c0.1,0.2,0.3,0.3,0.4,0.5c0.2,0.2,0.4,0.4,0.6,0.6
	c0.9,0.8,2.1,1.5,3.5,2.2c0.2,0.1,0.5,0.3,0.8,0.4c0.2,0.1,0.4,0.2,0.6,0.3c0.3,0.2,0.7,0.3,1.1,0.5c2.9,1.2,6.5,2.3,10.5,3.1
	c0.4,0.1,0.8,0.2,1.2,0.2c0.4,0.1,0.8,0.2,1.1,0.2c0.6,0.1,1.2,0.2,1.7,0.3c1.2,0.2,2.4,0.4,3.6,0.6c0.6,0.1,1.3,0.2,1.9,0.3
	c0.6,0.1,1.3,0.2,1.9,0.2c0.1,0,0.1,0,0.2,0c1.2,0.1,2.4,0.2,3.7,0.3c0,0,0.1,0,0.1,0c1.2,0.1,2.5,0.2,3.7,0.3c0.1,0,0.2,0,0.4,0
	c0.6,0,1.3,0.1,1.9,0.1c0.6,0,1.1,0.1,1.7,0.1c0.2,0,0.5,0,0.7,0l1.8,0c0.9,0,1.7,0,2.6,0c0.6,0,1.1,0,1.7,0c0.5,0,1.1,0,1.6,0l0,0
	l0.1,0c1,0,2,0,2.9-0.1c1-0.1,1.9-0.1,2.9-0.1c0.1,0,0.2,0,0.4,0c0.7,0,1.3-0.1,2-0.1c0.3,0,0.7,0,1-0.1c0.7,0,1.4-0.1,2.2-0.2
	c1.5-0.1,3-0.3,4.5-0.5c0.6-0.1,1.2-0.2,1.8-0.2c0.7-0.1,1.4-0.2,2.1-0.3c1.2-0.2,2.4-0.4,3.5-0.6c0.7-0.1,1.3-0.3,2-0.4
	c0.1,0,0.1,0,0.2,0c0.7-0.2,1.4-0.3,2.1-0.5c0.1,0,0.2,0,0.3-0.1c0.6-0.1,1.2-0.3,1.8-0.5c0.1,0,0.1,0,0.2-0.1
	c0.1,0,0.2-0.1,0.3-0.1c1.1-0.3,2.2-0.7,3.2-1c0.3-0.1,0.6-0.2,0.9-0.3c0.7-0.2,1.3-0.5,1.8-0.7c0.3-0.1,0.7-0.3,1-0.4
	c0.5-0.2,1-0.5,1.5-0.7c0.6-0.3,1.2-0.7,1.7-1.1c0.5-0.4,1-0.7,1.4-1.1c0.1-0.1,0.3-0.2,0.4-0.4c0.6-0.7,1.1-1.3,1.4-2
	C97.5,30.8,97.6,30.2,97.6,29.6z"/>
<path class="st0" d="M50.4,16.1c-1.7,0-3.4,0-5.1,0.1C21.6,16.8,3.1,22.5,3.1,29.5c0,0.7,0.2,1.4,0.6,2.1c0.1,0.2,0.2,0.4,0.4,0.6
	c0.2,0.2,0.3,0.5,0.6,0.7c0.1,0.2,0.3,0.3,0.4,0.5c0.2,0.2,0.4,0.4,0.6,0.6c0.9,0.8,2.1,1.5,3.5,2.2c0.2,0.1,0.5,0.3,0.8,0.4
	c0.2,0.1,0.4,0.2,0.6,0.3c0.3,0.2,0.7,0.3,1.1,0.5c2.9,1.2,6.5,2.3,10.5,3.1c0.4,0.1,0.8,0.2,1.2,0.2c0.4,0.1,0.8,0.2,1.1,0.2
	c0.6,0.1,1.2,0.2,1.7,0.3c1.2,0.2,2.4,0.4,3.6,0.6c0.6,0.1,1.3,0.2,1.9,0.3c0.6,0.1,1.3,0.2,1.9,0.2c0.1,0,0.1,0,0.2,0
	c1.2,0.1,2.4,0.2,3.7,0.3c0,0,0.1,0,0.1,0c1.2,0.1,2.5,0.2,3.7,0.3c0.1,0,0.2,0,0.4,0c0.6,0,1.3,0.1,1.9,0.1c0.6,0,1.3,0.1,1.9,0.1
	c0.1,0,0.3,0,0.4,0l1.8,0c0.9,0,1.7,0,2.6,0c0.6,0,1.1,0,1.7,0c0.5,0,1.1,0,1.6,0l0,0l0,0l0.1,0c1,0,2,0,2.9-0.1
	c1-0.1,1.9-0.1,2.9-0.1c0.1,0,0.2,0,0.4,0c0.7,0,1.3-0.1,2-0.1c0.3,0,0.7,0,1-0.1c0.7,0,1.4-0.1,2.2-0.2c1.5-0.1,3-0.3,4.5-0.5
	c0.6-0.1,1.2-0.2,1.8-0.2c0.7-0.1,1.4-0.2,2.1-0.3c1.2-0.2,2.4-0.4,3.5-0.6c0.7-0.1,1.3-0.3,2-0.4c0.1,0,0.1,0,0.2,0
	c0.7-0.2,1.4-0.3,2.1-0.5c0.1,0,0.2,0,0.3-0.1c0.6-0.2,1.2-0.3,1.8-0.5c0.1,0,0.1,0,0.2-0.1c0.1,0,0.2-0.1,0.3-0.1
	c1.1-0.3,2.2-0.7,3.2-1c0.3-0.1,0.6-0.2,0.9-0.3c0.7-0.2,1.3-0.5,1.8-0.7c0.3-0.1,0.7-0.3,1-0.4c0.5-0.2,1-0.5,1.5-0.7
	c0.6-0.3,1.2-0.7,1.7-1.1c0.5-0.4,1-0.7,1.4-1.1c0.1-0.1,0.3-0.2,0.4-0.4c0.6-0.7,1.1-1.3,1.4-2c0.2-0.6,0.4-1.1,0.4-1.7
	C97.6,22.2,76.5,16.1,50.4,16.1z M66.2,29.6c0,1.9-7,3.4-15.5,3.4c-8.6,0-15.5-1.5-15.5-3.4c0-1.9,7-3.4,15.5-3.4
	S66.2,27.7,66.2,29.6z"/>
</svg>
