<?xml version="1.0" encoding="utf-8"?>
<!-- Generator: Adobe Illustrator 24.1.2, SVG Export Plug-In . SVG Version: 6.00 Build 0)  -->
<svg version="1.1" id="Layer_1" xmlns="http://www.w3.org/2000/svg" xmlns:xlink="http://www.w3.org/1999/xlink" x="0px" y="0px"
	 viewBox="0 0 100 150" style="enable-background:new 0 0 100 150;" xml:space="preserve">
<style type="text/css">
	.st0{fill:none;stroke:#FFFFFF;stroke-width:1.3423;stroke-miterlimit:10;}
	.st1{fill:none;stroke:#FFFFFF;stroke-width:0.9925;stroke-miterlimit:10;}
	.st2{fill:#FFFFFF;}
</style>
<ellipse transform="matrix(0.4819 -0.8762 0.8762 0.4819 20.8698 70.7077)" class="st0" cx="70.2" cy="17.7" rx="10.7" ry="28.6"/>
<g>
	<path class="st0" d="M57.9,22.7l-0.3,0.5l-2.9,27L50,93.9L44.2,148l-10.1-11c-1.8-1.1-3.5-2.2-5.1-3.3c-6.7-4.7-11.4-9.9-12.8-14
		l-0.2-2.5c-1.6-4.7-3-10.1-4-16.1c-2.4-14.4-4.2-28.2-0.1-36.2c0,0,0,0,0,0c0.1-0.3,0.2-0.6,0.4-0.9l17.2-31.3l0-0.1L45.2,3.9
		C42.8,8.2,48.3,15.8,57.9,22.7z"/>
	<path class="st0" d="M95.3,31.5l-33,60c-1.5,2.8-6.2,3.5-12.3,2.4l4.7-43.7l2.9-27l0.3-0.5c2.2,1.5,4.6,3,7.1,4.5
		c0.6,0.3,1.2,0.6,1.8,0.9l0,0C80,34.9,92.5,36.5,95.3,31.5z"/>
	<ellipse transform="matrix(0.4819 -0.8762 0.8762 0.4819 20.7459 70.1874)" class="st1" cx="69.7" cy="17.6" rx="3" ry="11.1"/>
	<polygon class="st2" points="29.4,32.6 29.4,32.6 29.4,32.6 	"/>
</g>
</svg>
